<?xml version="1.0" encoding="UTF-8"?>
<svg width="16px" height="16px" viewBox="0 0 16 16" version="1.1" xmlns="http://www.w3.org/2000/svg" xmlns:xlink="http://www.w3.org/1999/xlink">
    <title>icon/插入下拉/滤波/去噪</title>
    <g id="icon/插入下拉/滤波/去噪" stroke="none" stroke-width="1" fill="none" fill-rule="evenodd">
        <path d="M7.5215,2.02025934 L11.543,4.07111157 C11.6698778,4.13593385 11.7499966,4.26822768 11.7499966,4.41292027 L11.7499933,4.693 L8.24133614,3.01688278 C8.20678697,3.00033387 8.16789496,2.99601639 8.13121848,3.00364314 L8.07868522,3.02400552 C8.02945322,3.05325428 7.99965661,3.10485282 8,3.16025891 L8,3.16025891 L8,12.8397411 C7.99965661,12.8951472 8.02945322,12.9467457 8.07868522,12.9759945 C8.12791723,13.0052432 8.18951239,13.0079406 8.24133614,12.9831172 L8.24133614,12.9831172 L11.7499933,11.306 L11.7499966,11.5870797 C11.7499966,11.7317723 11.6698778,11.8640661 11.543,11.9288884 L7.5215,13.9797407 C7.46319824,14.0095287 7.39390363,14.0062919 7.33851758,13.9711934 C7.28313153,13.9360949 7.24961033,13.8741766 7.24999664,13.8076893 L7.24999664,2.1923107 C7.24961033,2.12582338 7.28313153,2.06390514 7.33851758,2.02880663 C7.39390363,1.99370812 7.46319824,1.9904713 7.5215,2.02025934 Z" id="形状结合" fill="#D8504D" fill-rule="nonzero"></path>
        <path d="M3.5,9.52934544 C4.32842712,9.52934544 5,10.2140567 5,11.0586909 C5,11.903325 4.32842712,12.5880363 3.5,12.5880363 C2.67157288,12.5880363 2,11.903325 2,11.0586909 C2,10.2140567 2.67157288,9.52934544 3.5,9.52934544 Z" id="路径" fill="#D8504D" fill-rule="nonzero"></path>
        <path d="M5.375,6.47065456 C5.99632034,6.47065456 6.5,6.98418802 6.5,7.61766364 C6.5,8.25113926 5.99632034,8.76467272 5.375,8.76467272 C4.75367966,8.76467272 4.25,8.25113926 4.25,7.61766364 C4.25,6.98418802 4.75367966,6.47065456 5.375,6.47065456 Z" id="路径" fill="#D8504D" fill-rule="nonzero"></path>
        <path d="M11,7.23532728 C11.4142136,7.23532728 11.75,7.57768292 11.75,8 C11.75,8.42231708 11.4142136,8.76467272 11,8.76467272 C10.5857864,8.76467272 10.25,8.42231708 10.25,8 C10.25,7.57768292 10.5857864,7.23532728 11,7.23532728 Z" id="路径" fill="#D8504D" fill-rule="nonzero"></path>
        <path d="M13.25,7.23532728 C13.6642136,7.23532728 14,7.57768292 14,8 C14,8.42231708 13.6642136,8.76467272 13.25,8.76467272 C12.8357864,8.76467272 12.5,8.42231708 12.5,8 C12.5,7.57768292 12.8357864,7.23532728 13.25,7.23532728 Z" id="路径" fill="#D8504D" fill-rule="nonzero"></path>
        <path d="M3.875,2.64729097 C4.49632034,2.64729097 5,3.16082442 5,3.79430004 C5,4.42777567 4.49632034,4.94130912 3.875,4.94130912 C3.25367966,4.94130912 2.75,4.42777567 2.75,3.79430004 C2.75,3.16082442 3.25367966,2.64729097 3.875,2.64729097 Z" id="路径" fill="#D8504D" fill-rule="nonzero"></path>
    </g>
</svg>